<svg xmlns="http://www.w3.org/2000/svg" xmlns:xlink="http://www.w3.org/1999/xlink" viewBox="0 0 205.57 111.59"><defs><clipPath id="a" transform="translate(-409.26 -456.2)"><rect x="409.26" y="456.13" width="205.47" height="111.75" style="fill:none"/></clipPath></defs><title>Cisco Systems logo</title><g style="clip-path:url(#a)"><path d="M455,566.44v-9.8l-.19.08a17,17,0,0,1-6.86,1.79,9.57,9.57,0,0,1-6.91-2.1,8.91,8.91,0,0,1-3-4.4,10.67,10.67,0,0,1-.2-5.88,9.34,9.34,0,0,1,7.87-7.16,15.12,15.12,0,0,1,9.08,1.75l.21.11V531l-.43-.12a23.46,23.46,0,0,0-8.66-1.17,19.36,19.36,0,0,0-7.73,1.82,17.52,17.52,0,0,0-6.33,5,19.67,19.67,0,0,0-3,5.59,20.18,20.18,0,0,0-.18,12.6,19.71,19.71,0,0,0,2.84,5.68,17.63,17.63,0,0,0,10.07,6.67,23,23,0,0,0,12.74-.46l.7-.2" transform="translate(-409.26 -456.2)" style="fill:#00bceb;fill-rule:evenodd"/><path d="M549.15,566.44v-9.8l-.19.08a17,17,0,0,1-6.86,1.79,9.57,9.57,0,0,1-6.91-2.1,8.91,8.91,0,0,1-3-4.4,10.67,10.67,0,0,1-.2-5.88,9.34,9.34,0,0,1,7.87-7.16,15.12,15.12,0,0,1,9.08,1.75l.21.11V531l-.43-.12a23.46,23.46,0,0,0-8.66-1.17,19.36,19.36,0,0,0-7.73,1.82,17.52,17.52,0,0,0-6.33,5,19.67,19.67,0,0,0-3,5.59,20.18,20.18,0,0,0-.18,12.6,19.71,19.71,0,0,0,2.84,5.68,17.63,17.63,0,0,0,10.07,6.67,23,23,0,0,0,12.74-.46l.7-.2" transform="translate(-409.26 -456.2)" style="fill:#00bceb;fill-rule:evenodd"/><path d="M558.49,548.72a19.82,19.82,0,0,0,1.94,8.27,19.36,19.36,0,0,0,2.24,3.6,19,19,0,0,0,3,3,18.64,18.64,0,0,0,3.52,2.27,18.32,18.32,0,0,0,8,1.9,18.18,18.18,0,0,0,4.13-.46A17.76,17.76,0,0,0,591,562a18.65,18.65,0,0,0,5-10,19,19,0,0,0-1.37-11.14A18.68,18.68,0,0,0,568.36,532a18.83,18.83,0,0,0-7.12,7,19.57,19.57,0,0,0-2.75,9.72m13.07-7.54a9.21,9.21,0,0,1,3.26-1.77,9.14,9.14,0,0,1,7.19.79,9.37,9.37,0,0,1,2.82,2.44,9.68,9.68,0,0,1,1.69,3.37,9.93,9.93,0,0,1-.84,7.39,9.51,9.51,0,0,1-2.4,2.88A9.19,9.19,0,0,1,580,558a9.14,9.14,0,0,1-7.06-.87,9.37,9.37,0,0,1-2.77-2.41,9.69,9.69,0,0,1-1.67-3.31,9.93,9.93,0,0,1,.74-7.29,9.53,9.53,0,0,1,2.3-2.89M467.38,567.08h9V530.32h-9Zm21.2-8.78,0,8.44.6.11a49.34,49.34,0,0,0,5.69.75,33.43,33.43,0,0,0,5,.1,20.39,20.39,0,0,0,4.72-.92,12.79,12.79,0,0,0,4.9-2.69,10,10,0,0,0,2.85-4.21,11.51,11.51,0,0,0-.06-8.47,9.37,9.37,0,0,0-2.56-3.65,10.41,10.41,0,0,0-3.75-2.25l-6.18-2.36a3.25,3.25,0,0,1-1.69-1.66,2.12,2.12,0,0,1,.07-1.93,2.51,2.51,0,0,1,.41-.57,3.31,3.31,0,0,1,.91-.68,6.43,6.43,0,0,1,2.2-.66,12.42,12.42,0,0,1,3.94,0,32.62,32.62,0,0,1,4.57.84l.32.07v-7.79l-.59-.13a39.1,39.1,0,0,0-4.65-.85,23.05,23.05,0,0,0-6.11,0,12.73,12.73,0,0,0-7,2.92,9.43,9.43,0,0,0-3,4.27,11.71,11.71,0,0,0,0,7.94,8.89,8.89,0,0,0,2.16,3.36,12.36,12.36,0,0,0,2.8,2.09,19,19,0,0,0,4.25,1.72l1.46.48.73.28.21.09a5.47,5.47,0,0,1,1.94,1.23,3.54,3.54,0,0,1,.87,1.34,3,3,0,0,1,0,1.42,2.88,2.88,0,0,1-1.42,1.75,6.82,6.82,0,0,1-2.36.76,16.58,16.58,0,0,1-3.65.19,40.65,40.65,0,0,1-4.77-.65c-.82-.18-1.64-.37-2.46-.59l-.3-.08Z" transform="translate(-409.26 -456.2)" style="fill:#00bceb;fill-rule:evenodd"/><path d="M409.26,500.77a4.27,4.27,0,0,0,2.82,3.93,4.07,4.07,0,0,0,4.66-.9,4.66,4.66,0,0,0,1.42-3V490.58a4.49,4.49,0,0,0-1.34-3.18,4.36,4.36,0,0,0-6.23,0,4.49,4.49,0,0,0-1.34,3.18v10.19" transform="translate(-409.26 -456.2)" style="fill:#00bceb;fill-rule:evenodd"/><path d="M433.9,500.77a4.5,4.5,0,0,0,1.42,3,4.36,4.36,0,0,0,6.07,0,4.5,4.5,0,0,0,1.41-3V477.92a4.49,4.49,0,0,0-1.36-3.14,4.36,4.36,0,0,0-6.18,0,4.49,4.49,0,0,0-1.36,3.14v22.85" transform="translate(-409.26 -456.2)" style="fill:#00bceb;fill-rule:evenodd"/><path d="M458.41,510a4.5,4.5,0,0,0,1.41,3,4.37,4.37,0,0,0,6.08,0,4.5,4.5,0,0,0,1.41-3V460.55a4.49,4.49,0,0,0-1.38-3.09,4.36,4.36,0,0,0-6.14,0,4.49,4.49,0,0,0-1.38,3.09V510" transform="translate(-409.26 -456.2)" style="fill:#00bceb;fill-rule:evenodd"/><path d="M483.13,500.77a4.5,4.5,0,0,0,1.42,3,4.36,4.36,0,0,0,6.07,0,4.5,4.5,0,0,0,1.41-3V477.92a4.49,4.49,0,0,0-1.36-3.14,4.36,4.36,0,0,0-6.18,0,4.49,4.49,0,0,0-1.36,3.14v22.85" transform="translate(-409.26 -456.2)" style="fill:#00bceb;fill-rule:evenodd"/><path d="M507.72,500.77a4.27,4.27,0,0,0,2.82,3.93,4.07,4.07,0,0,0,4.66-.9,4.66,4.66,0,0,0,1.42-3V490.58a4.49,4.49,0,0,0-1.34-3.18,4.36,4.36,0,0,0-6.23,0,4.49,4.49,0,0,0-1.34,3.18v10.19" transform="translate(-409.26 -456.2)" style="fill:#00bceb;fill-rule:evenodd"/><path d="M532.36,500.77a4.5,4.5,0,0,0,1.42,3,4.36,4.36,0,0,0,6.07,0,4.5,4.5,0,0,0,1.41-3V477.92a4.49,4.49,0,0,0-1.36-3.14,4.36,4.36,0,0,0-6.18,0,4.49,4.49,0,0,0-1.36,3.14v22.85" transform="translate(-409.26 -456.2)" style="fill:#00bceb;fill-rule:evenodd"/><path d="M556.87,510a4.5,4.5,0,0,0,1.41,3,4.37,4.37,0,0,0,6.08,0,4.5,4.5,0,0,0,1.41-3V460.55a4.49,4.49,0,0,0-1.38-3.09,4.36,4.36,0,0,0-6.14,0,4.49,4.49,0,0,0-1.38,3.09V510" transform="translate(-409.26 -456.2)" style="fill:#00bceb;fill-rule:evenodd"/><path d="M581.58,500.77a4.5,4.5,0,0,0,1.42,3,4.36,4.36,0,0,0,6.07,0,4.5,4.5,0,0,0,1.41-3V477.92a4.49,4.49,0,0,0-1.36-3.14,4.36,4.36,0,0,0-6.18,0,4.49,4.49,0,0,0-1.36,3.14v22.85" transform="translate(-409.26 -456.2)" style="fill:#00bceb;fill-rule:evenodd"/><path d="M605.94,500.77a4.27,4.27,0,0,0,2.82,3.93,4.07,4.07,0,0,0,4.66-.9,4.66,4.66,0,0,0,1.42-3V490.58a4.49,4.49,0,0,0-1.34-3.18,4.36,4.36,0,0,0-6.23,0,4.49,4.49,0,0,0-1.34,3.18v10.19" transform="translate(-409.26 -456.2)" style="fill:#00bceb;fill-rule:evenodd"/></g></svg>