<svg xmlns="http://www.w3.org/2000/svg" viewBox="0 0 238.2 45.23"><defs><style>.a{fill:#76b900;}</style></defs><title>NVIDIA logo</title><path d="M538.43,497.94v29.7h8.38v-29.7Zm-65.94-.05v29.72h8.46V504.54l6.59,0c2.16,0,3.67.53,4.71,1.64,1.33,1.41,1.86,3.7,1.86,7.85v13.57h8.21V511.21c0-11.73-7.48-13.31-14.77-13.31Zm79.46.05v29.7h13.59c7.25,0,9.61-1.21,12.16-3.9,1.81-1.89,3-6.07,3-10.62,0-4.18-1-7.9-2.72-10.22-3.07-4.15-7.55-5-14.25-5Zm8.31,6.44h3.6c5.24,0,8.61,2.34,8.61,8.43s-3.37,8.46-8.61,8.46h-3.6Zm-33.9-6.44-7,23.53-6.69-23.53h-9.06l9.56,29.7h12.08l9.66-29.7Zm58.24,29.7H593v-29.7h-8.38Zm23.51-29.7-11.7,29.67h8.26l1.86-5.26h13.84l1.76,5.24h9l-11.8-29.65Zm5.44,5.41,5.08,13.89H608.3Z" transform="translate(-392.9 -489.39)"/><path class="a" d="M418.4,502.88V498.8c.4,0,.81-.05,1.21-.05,11.18-.35,18.5,9.61,18.5,9.61s-7.9,11-16.39,11a10.4,10.4,0,0,1-3.3-.53V506.43c4.35.53,5.24,2.44,7.83,6.8l5.81-4.88s-4.25-5.56-11.4-5.56a17.06,17.06,0,0,0-2.27.1m0-13.49v6.09l1.21-.08c15.53-.53,25.67,12.74,25.67,12.74s-11.63,14.15-23.73,14.15a18.45,18.45,0,0,1-3.12-.28v3.78A22.42,22.42,0,0,0,421,526c11.28,0,19.43-5.76,27.33-12.56,1.31,1.06,6.67,3.6,7.78,4.71-7.5,6.29-25,11.35-34.91,11.35a24.83,24.83,0,0,1-2.77-.15v5.31h42.84V489.39Zm0,29.42V522c-10.42-1.86-13.31-12.71-13.31-12.71a22.6,22.6,0,0,1,13.31-6.44v3.52h0c-4.35-.53-7.78,3.55-7.78,3.55s1.94,6.87,7.8,8.86m-18.5-9.94a25.83,25.83,0,0,1,18.52-10.07v-3.32c-13.69,1.11-25.52,12.69-25.52,12.69s6.69,19.38,25.5,21.14v-3.52C404.6,524.07,399.9,508.87,399.9,508.87Z" transform="translate(-392.9 -489.39)"/></svg>