<svg xmlns="http://www.w3.org/2000/svg" viewBox="0 0 315.98 76.12"><title>Acer logo - Brandlogos.net</title><path d="M669.24,477.3c-1.12-1.49-2.24-2.61-7.84-3-1.49,0-6-.37-13.81-.37-20.52,0-34.7,6.34-41.79,18.66,1.87-12.31-10.07-18.66-36.19-18.66-30.6,0-50,12.31-57.84,37.31-3,9.33-3,16.79-.75,22.76h-7.46c-5.6.37-13.06.75-17.91.75-11.19,0-18.28-1.87-20.9-5.6-2.24-3.36-2.24-9.7.75-19,4.85-15.3,16.42-22,35.08-22a181.9,181.9,0,0,1,19,1.12h0c1.12,0,1.87-1.49,1.87-2.61l-.37-1.12-.75-5.22c-.37-3.36-3-5.22-7.46-6-4.1-.37-7.46-.37-11.94-.37h-.37c-24.25,0-41.42,8.21-50.75,23.88,3.36-16-7.84-23.88-33.58-23.88-14.55,0-25,.37-31,1.12-4.85.75-7.84,2.61-9,6l-2.24,6.72c-.37,1.12.37,1.87,1.87,1.87h0c1.12,0,5.6-.75,13.06-1.12,10.07-.75,17.16-1.12,22-1.12,14.18,0,20.52,3.73,18.28,10.82a4,4,0,0,1-3.36,3c-13.43,2.24-24.25,3.73-32.09,4.85-22.39,3-35.45,9.7-38.81,20.9-4.85,15.3,7.09,22.76,35.82,22.76,14.18,0,26.49-.75,36.19-2.61,5.6-1.12,8.58-2.24,9.7-6L442,523.94c-.37,17.16,11.19,25.75,35.82,25.75,10.45,0,20.52-.37,25.37-1.12s7.46-1.87,8.58-5.6l1.12-5.22c5.22,8.21,16.79,12.31,34.33,12.31,18.66,0,29.48-.37,32.46-1.49a6.88,6.88,0,0,0,4.85-4.1,1.37,1.37,0,0,1,.37-1.12l2.24-7.09c.37-1.12-.37-1.87-1.87-1.87l-11.94.75c-7.84.37-14.18.75-18.66.75-8.58,0-14.18-.75-17.54-1.87-4.85-1.87-7.09-5.22-6.72-10.82l37.69-4.85c16.79-2.24,28.36-7.46,34-15.67L589,546.33a1.64,1.64,0,0,0,.37,1.87,3.57,3.57,0,0,0,2.61.75h15.67a4,4,0,0,0,4.1-2.61l13.81-48.14c1.87-6.34,7.46-9.33,17.91-9.33,9.33,0,16,0,20.52.37h.37a4.07,4.07,0,0,0,3.36-2.24l2.24-6.72a4,4,0,0,0-.75-3Zm-251.5,57.46a148.28,148.28,0,0,1-20.9,1.12c-16,0-22.76-3.36-20.9-9.7,1.49-4.48,5.6-7.46,12.31-8.21l36.19-4.85-6.72,21.64ZM584.54,496q-2.24,7.28-21.27,10.07L533,510.13l.75-2.61c2.61-8.21,6-13.43,10.45-16.42s11.94-4.48,22.39-4.48c13.81.37,19.78,3.36,17.91,9.33Z" transform="translate(-354.01 -473.94)" style="fill:#83b81a"/></svg>