<?xml version="1.0" encoding="UTF-8"?><svg id="Layer_1" xmlns="http://www.w3.org/2000/svg" viewBox="0 0 77.49 16"><defs><style>.cls-1{fill:#2d2926;}</style></defs><path class="cls-1" d="M37.82,0h-13.67c-3.17,0-4.58,1.98-4.9,3.87V0h-7.58c-1.06,0-1.57.32-2.08,1.06l-2.08,3.04h30.31V0h0ZM0,16h5.44l6.82-11.01-4.86-.48L0,16ZM43.1,0h-4.48v4.1h4.48V0ZM71.54,6.4l-14.02-.83c0,2.14,1.41,3.59,3.81,3.78l9.98.77c.77.07,1.25.26,1.25.9,0,.61-.55.83-1.67.83h-13.6v4.16h13.89c4.38,0,6.3-1.54,6.3-5.03,0-3.13-1.73-4.32-5.95-4.57h0Z"/><path class="cls-1" d="M57.34,5.57l-4.42-.26v4.7c0,1.47-.74,1.92-3.29,1.92h-3.52c-2.11,0-3.01-.61-3.01-1.92v-5.15l-4.48-.32v5.85h-.1c-.26-1.7-.9-3.68-5.15-3.97l-14.02-.93c0,2.15,1.54,3.42,3.94,3.68l9.76.99c.77.06,1.34.29,1.34.93,0,.7-.58.77-1.47.77h-13.73v-6.4l-4.48-.29v10.81h18.24c4.06,0,5.38-2.11,5.57-3.87h.1c.51,2.78,2.94,3.87,7.07,3.87h4.54c4.83,0,7.11-1.47,7.11-4.93v-5.5h0ZM77.18,4.1V0h-15.04c-3.13,0-4.54,1.94-4.79,3.81,0,.02,0,.04,0,.07V0h-4.42v4.1h24.25Z"/></svg>