<svg xmlns="http://www.w3.org/2000/svg" width="351.5" height="75.05" viewBox="0 0 351.5 75.05"><title>Microsoft logo - Brandlogos.net</title><path d="M332.29,389.76l-2.14,5.89h-.09a55.48,55.48,0,0,0-2-5.8l-11.24-28.29H305.78v45H313V378.87c0-1.7,0-3.75-.09-6.16,0-1.16-.18-2.14-.18-2.86h.18a24,24,0,0,0,1.07,3.84l13.56,32.84h5.09L346,373.43a29.36,29.36,0,0,0,.89-3.57h.18c-.18,3.3-.36,6.25-.36,8v28.56h7.76v-45H343.89Z" transform="translate(-208.25 -346.48)" style="fill:#77787b"/><rect x="153.49" y="27.75" width="7.59" height="32.21" style="fill:#77787b"/><path d="M365.66,360.58a4.68,4.68,0,0,0-3.21,1.25,4.31,4.31,0,0,0,0,6.25,4.68,4.68,0,0,0,3.21,1.25,4.9,4.9,0,0,0,3.3-1.25,4.05,4.05,0,0,0,1.34-3.12,4.19,4.19,0,0,0-1.34-3.12A4.9,4.9,0,0,0,365.66,360.58Z" transform="translate(-208.25 -346.48)" style="fill:#77787b"/><path d="M396.18,374a23.13,23.13,0,0,0-4.19-.45,18,18,0,0,0-9.19,2.23,14.63,14.63,0,0,0-6.07,6.25,19.48,19.48,0,0,0-2.05,9.28,17.32,17.32,0,0,0,2.05,8.3,13.56,13.56,0,0,0,5.71,5.71,16.82,16.82,0,0,0,8.3,2.05,17.84,17.84,0,0,0,9.1-2.14l.09-.09v-7l-.36.27a18.71,18.71,0,0,1-3.75,2,12,12,0,0,1-3.66.71,9.41,9.41,0,0,1-7.14-2.77,12.6,12.6,0,0,1,.18-15.53,9.22,9.22,0,0,1,7.14-2.94,12,12,0,0,1,7.23,2.5l.36.27V375.3l-.09-.09A10.39,10.39,0,0,0,396.18,374Z" transform="translate(-208.25 -346.48)" style="fill:#77787b"/><path d="M421.17,373.69a8.21,8.21,0,0,0-5.09,1.78,10.79,10.79,0,0,0-2.94,4.28H413v-5.62h-7.59v32.21H413V390a11.78,11.78,0,0,1,1.87-6.87,5.83,5.83,0,0,1,4.91-2.59,7.74,7.74,0,0,1,2.32.36,4.89,4.89,0,0,1,1.78.71l.36.27v-7.76l-.09-.09A13.46,13.46,0,0,0,421.17,373.69Z" transform="translate(-208.25 -346.48)" style="fill:#77787b"/><path d="M441.78,373.43c-5.35,0-9.55,1.52-12.58,4.64s-4.55,7.32-4.55,12.67c0,5.09,1.52,9.1,4.46,12s7,4.46,11.87,4.46c5.18,0,9.28-1.61,12.31-4.73s4.55-7.32,4.55-12.49-1.43-9.19-4.28-12.14S446.78,373.43,441.78,373.43Zm6,24.81a7.67,7.67,0,0,1-6.34,2.68,8,8,0,0,1-6.51-2.77c-1.52-1.78-2.32-4.46-2.32-7.76s.8-6.07,2.32-7.94a8.84,8.84,0,0,1,12.76-.09c1.52,1.78,2.32,4.46,2.32,7.85C449.9,393.77,449.19,396.45,447.76,398.23Z" transform="translate(-208.25 -346.48)" style="fill:#77787b"/><path d="M474.62,387.52a16,16,0,0,1-4.55-2.41,3.31,3.31,0,0,1-.89-2.5,2.72,2.72,0,0,1,1.16-2.32,5.19,5.19,0,0,1,3.3-.89,12.42,12.42,0,0,1,3.93.62,10,10,0,0,1,3.39,1.61l.36.18v-7l-.09-.09a18.7,18.7,0,0,0-3.48-1,20.23,20.23,0,0,0-3.75-.36,13.68,13.68,0,0,0-8.92,2.77,8.83,8.83,0,0,0-3.48,7.14,11.12,11.12,0,0,0,.71,4,8.38,8.38,0,0,0,2.32,3,20.89,20.89,0,0,0,4.64,2.59,33.79,33.79,0,0,1,3.84,1.78,4.72,4.72,0,0,1,1.7,1.43,2.81,2.81,0,0,1,.45,1.78c0,2.14-1.61,3.21-5,3.21a12.82,12.82,0,0,1-4.19-.8,17.49,17.49,0,0,1-4.28-2.14l-.36-.27v7.41l.09.09a18.73,18.73,0,0,0,4.1,1.25,20.11,20.11,0,0,0,4.37.54c3.93,0,7-.89,9.37-2.77a8.92,8.92,0,0,0,3.48-7.32,8.47,8.47,0,0,0-1.87-5.53A17.61,17.61,0,0,0,474.62,387.52Z" transform="translate(-208.25 -346.48)" style="fill:#77787b"/><path d="M503.26,373.43c-5.35,0-9.55,1.52-12.58,4.64s-4.55,7.32-4.55,12.67c0,5.09,1.52,9.1,4.46,12s7,4.46,11.87,4.46c5.18,0,9.28-1.61,12.31-4.73s4.55-7.32,4.55-12.49-1.43-9.19-4.28-12.14S508.26,373.43,503.26,373.43Zm6,24.81a7.67,7.67,0,0,1-6.34,2.68,8,8,0,0,1-6.51-2.77c-1.52-1.78-2.32-4.46-2.32-7.76s.8-6.07,2.32-7.94a8.84,8.84,0,0,1,12.76-.09c1.52,1.78,2.32,4.46,2.32,7.85C511.47,393.77,510.67,396.45,509.24,398.23Z" transform="translate(-208.25 -346.48)" style="fill:#77787b"/><path d="M559.75,380.39v-6.16h-7.67v-9.64l-.27.09-7.23,2.23h-.18v7.32H533.07v-4a6.62,6.62,0,0,1,1.25-4.28,4.33,4.33,0,0,1,3.48-1.43,7.49,7.49,0,0,1,3.3.8l.27.09v-6.51l-.09-.09a13.93,13.93,0,0,0-4.28-.54,12.44,12.44,0,0,0-6.07,1.43,10.32,10.32,0,0,0-4.19,4.1,12.09,12.09,0,0,0-1.43,6v4.46H520v6.16h5.35v26.06H533V380.39h11.33v16.51c0,6.78,3.21,10.26,9.55,10.26a14.37,14.37,0,0,0,3.3-.36,22.13,22.13,0,0,0,2.41-.71l.09-.09v-6.25l-.27.18a6.08,6.08,0,0,1-3,1,4.14,4.14,0,0,1-3.3-1.16,6.29,6.29,0,0,1-1.07-4.1V380.39Z" transform="translate(-208.25 -346.48)" style="fill:#77787b"/><rect width="35.69" height="35.69" style="fill:#f26522"/><rect x="39.35" width="35.69" height="35.69" style="fill:#8dc63f"/><rect y="39.35" width="35.69" height="35.69" style="fill:#00aeef"/><rect x="39.35" y="39.35" width="35.69" height="35.69" style="fill:#ffc20e"/></svg>